# xmcd
#
# Track frame offsets:
#	187
#	22437
#	37442
#	53570
#	73852
#	97320
#	118702
#	138550
#	153362
#	171052
#
# Disc length: 2580 seconds
#
# Revision: 1
# Processed by: cddbd v1.5.1PL0 Copyright (c) Steve Scherf et al.
# Submitted via: CDex 1.50Beta5
#
DISCID=9a0a120a
DTITLE=ビートたけし - A.M.3:25
DYEAR=1900
DGENRE=Pop
TTITLE0=過ぎゆく街
TTITLE1=惚れているから投げとばし
TTITLE2=SUNSHINE
TTITLE3=男というもの
TTITLE4=パントマイムで林檎をむいて
TTITLE5=抱いた腰がチャッチャッチャッ
TTITLE6=ポケットから堕ちた夜
TTITLE7=TAKESHIの,たかをくくろうか
TTITLE8=ONENIGHT SHOW
TTITLE9=新宿午前3時25分
EXTD=
EXTT0=
EXTT1=
EXTT2=
EXTT3=
EXTT4=
EXTT5=
EXTT6=
EXTT7=
EXTT8=
EXTT9=
PLAYORDER=
